PathFileType	4	(X/Y/Z)	Walk2.trc
DataRate	CameraRate	NumFrames	NumMarkers	Units	OrigDataRate	OrigDataStartFrame	OrigNumFrames
200.000000	200.000000	8	59	mm	200.000000	330	574
Frame#	Times		RFHD		CLAV		STRN		LASI		RASI		RACR1		RUA1		RElbow		RFA1		RWRU		LACR1		LUA1		LFA1		LCAR		RTH1		RTH2		LTH3		LTH2		LTH4		LLFC		LTB1		LTB3		LTB4		LLMAL		LMT1		LToe		RTH3		LTH1		LFHD		C7		RCAR		RTH4		LWRR		RLFC		LTB2		RBack		RPSI		LMT5		LMMAL		RBHD		T10		LPSI		LElbow		RTB1		LWRU		RTB2		RCAL		RMMAL		RTB4		RToe		RMT1		RTB3		RWRR		LElbowM		LBHD		RElbowM		RMT5		RLMAL		LCAL
			X1	Y1	Z1	X2	Y2	Z2	X3	Y3	Z3	X4	Y4	Z4	X5	Y5	Z5	X6	Y6	Z6	X7	Y7	Z7	X8	Y8	Z8	X9	Y9	Z9	X10	Y10	Z10	X11	Y11	Z11	X12	Y12	Z12	X13	Y13	Z13	X14	Y14	Z14	X15	Y15	Z15	X16	Y16	Z16	X17	Y17	Z17	X18	Y18	Z18	X19	Y19	Z19	X20	Y20	Z20	X21	Y21	Z21	X22	Y22	Z22	X23	Y23	Z23	X24	Y24	Z24	X25	Y25	Z25	X26	Y26	Z26	X27	Y27	Z27	X28	Y28	Z28	X29	Y29	Z29	X30	Y30	Z30	X31	Y31	Z31	X32	Y32	Z32	X33	Y33	Z33	X34	Y34	Z34	X35	Y35	Z35	X36	Y36	Z36	X37	Y37	Z37	X38	Y38	Z38	X39	Y39	Z39	X40	Y40	Z40	X41	Y41	Z41	X42	Y42	Z42	X43	Y43	Z43	X44	Y44	Z44	X45	Y45	Z45	X46	Y46	Z46	X47	Y47	Z47	X48	Y48	Z48	X49	Y49	Z49	X50	Y50	Z50	X51	Y51	Z51	X52	Y52	Z52	X53	Y53	Z53	X54	Y54	Z54	X55	Y55	Z55	X56	Y56	Z56	X57	Y57	Z57	X58	Y58	Z58	X59	Y59	Z59

330	1.65	-190.68	1581.8	5.2216	-253.53	1347.3	-49.289	-179.96	1124.4	-46.49	-240.65	940.75	-167.74	-230.01	959.52	100.25	-301.26	1360.7	125.86	-351.58	1154.1	187.22	-389.43	1052.3	209.11	-339.42	906.65	221.33	-376.39	800.03	234.97	-318.06	1365.7	-216.03	-317.79	1158.8	-270.16	-243.27	928.82	-276.69	-190.66	779.44	-265.67	-285.87	762.94	157.48	-187.23	711.06	118.4	-343.13	553.41	-148.43	-274.76	645.56	-145.04	-348.2	639.36	-167.3	-353.21	444.73	-132.89	-347.31	343.98	-50.573	-411.04	167.29	-47.621	-377.66	253.27	-52.705	-477.95	66.196	-93.665	-333.47	38.633	-55.974	-286.64	29.263	-84.969	-212.67	591.69	120.06	-349.69	735.08	-189.82	-191.05	1579.7	-67.81	-376.38	1428.5	-41.958	-332.61	756.67	234.31	-249.09	677	138.8	-210.21	821.2	-226.15	-188.39	498.95	107.27	-396.45	259.56	-122.49	-422.91	1325.8	54.804	-446.62	987.48	38.201	-373.98	22.515	-133.91	-460.42	75.837	-12.655	-366.93	1561.4	25.661	-417.91	1143.9	-38.953	-451.72	983.44	-75.863	-320.6	1038.8	-287.58	-157.3	374.97	42.987	-243.54	807.8	-288.72	-201.12	293.07	109.13	-299.59	63.82	29.97	-227.01	109.72	11.207	-178.97	284.86	42.154	-76.168	49.106	105.28	-105.42	57.04	67.805	-199.4	195.56	41.14	-322.38	801.52	184.57	-356.56	1021.6	-228.64	-360.49	1568.6	-101.8	-400.1	1031.7	125.68	-160.51	34.623	126.04	-261.51	95.802	84.934	-530.18	36.545	-39.343
331	1.655	-185.48	1581	5.6016	-248.46	1346.6	-49.085	-174.81	1123.7	-46.528	-235.89	939.78	-167.55	-224.73	958.5	100.34	-296.03	1359.9	126.14	-346.8	1153.5	187.51	-384.79	1051.7	209.4	-335.23	905.91	221.74	-372.56	799.41	235.4	-313.22	1365.2	-215.74	-312.24	1158.5	-270.21	-235.79	929.12	-277.06	-181.67	780.29	-265.91	-280.6	762.36	157.98	-182.25	710.26	118.49	-339.55	552.69	-148.19	-270.83	644.61	-144.83	-344.31	638.67	-167.07	-350.18	444.04	-132.63	-344.99	343.21	-50.328	-410.11	167.02	-47.416	-376.04	252.73	-52.476	-477.73	66.428	-93.536	-333.43	38.605	-55.958	-286.59	29.177	-85.146	-207.8	590.94	120.49	-345.47	734.39	-189.53	-185.93	1579	-67.433	-371.33	1427.9	-41.548	-328.95	755.86	234.73	-244.01	676.33	139.38	-201.42	822.02	-226.41	-183.51	497.68	107.93	-394.72	259.17	-122.28	-417.72	1325	55.142	-441.25	986.86	38.627	-374	22.544	-133.85	-460.07	75.953	-12.479	-361.74	1560.7	26.194	-412.75	1143.2	-38.643	-446.66	982.84	-75.414	-314.11	1038.5	-287.78	-149.25	374.5	43.361	-234.97	808.09	-288.72	-190.22	291.21	109.52	-281.26	59.002	30.222	-210.18	107.17	11.48	-167.92	283.75	42.537	-57.425	51.055	105.52	-86.926	58.15	68.084	-185.39	193.84	41.471	-318.54	800.69	184.99	-349.84	1020.9	-228.81	-355.42	1568	-101.27	-395.35	1031	125.97	-141.31	34.157	126.4	-244.15	92.115	85.223	-530.09	36.982	-39.119
332	1.66	-180.28	1580.2	6.0021	-243.36	1346	-48.858	-169.66	1123	-46.54	-231.13	938.81	-167.39	-219.42	957.4	100.47	-290.77	1359.1	126.44	-341.97	1152.8	187.83	-380.11	1051.1	209.72	-330.97	905.15	222.16	-368.66	798.76	235.85	-308.37	1364.7	-215.43	-306.7	1158.1	-270.23	-228.35	929.4	-277.4	-172.74	781.12	-266.15	-275.37	761.71	158.48	-177.36	709.3	118.57	-335.95	551.96	-147.95	-266.88	643.64	-144.63	-340.41	637.98	-166.85	-347.13	443.34	-132.38	-342.65	342.44	-50.094	-409.16	166.76	-47.214	-374.41	252.19	-52.255	-477.5	66.672	-93.399	-333.38	38.578	-55.942	-286.53	29.088	-85.326	-203.1	590.07	120.98	-341.24	733.68	-189.24	-180.81	1578.3	-67.034	-366.26	1427.2	-41.118	-325.21	755.03	235.16	-239.01	675.55	139.99	-192.66	822.81	-226.67	-178.76	496.31	108.64	-392.98	258.77	-122.07	-412.52	1324.2	55.506	-435.86	986.22	39.07	-374.03	22.575	-133.78	-459.71	76.088	-12.299	-356.55	1560.1	26.755	-407.56	1142.5	-38.305	-441.57	982.21	-74.941	-307.64	1038.1	-287.93	-141.35	374.04	43.757	-226.45	808.36	-288.7	-179.42	289.43	109.93	-262.93	54.505	30.508	-193.44	104.9	11.771	-157	282.74	42.945	-38.846	53.315	105.61	-68.601	59.545	68.25	-171.48	192.32	41.819	-314.64	799.85	185.43	-343.12	1020.2	-228.91	-350.35	1567.5	-100.72	-390.59	1030.3	126.28	-122.17	33.989	126.69	-226.81	88.7	85.533	-529.98	37.442	-38.88
333	1.665	-175.09	1579.4	6.424	-238.25	1345.3	-48.607	-164.5	1122.2	-46.525	-226.37	937.85	-167.25	-214.08	956.25	100.63	-285.49	1358.3	126.77	-337.08	1152.1	188.17	-375.38	1050.4	210.07	-326.65	904.38	222.6	-364.67	798.09	236.34	-303.49	1364.2	-215.1	-301.18	1157.7	-270.2	-220.94	929.66	-277.71	-163.87	781.94	-266.4	-270.19	761	158.97	-172.56	708.19	118.66	-332.34	551.21	-147.73	-262.91	642.66	-144.44	-336.49	637.28	-166.65	-344.07	442.62	-132.14	-340.29	341.65	-49.871	-408.2	166.5	-47.015	-372.77	251.65	-52.041	-477.27	66.927	-93.252	-333.34	38.55	-55.926	-286.48	28.998	-85.509	-198.55	589.06	121.55	-337.01	732.96	-188.95	-175.7	1577.5	-66.613	-361.18	1426.5	-40.664	-321.39	754.18	235.6	-234.11	674.67	140.63	-183.95	823.58	-226.92	-174.13	494.85	109.39	-391.25	258.37	-121.86	-407.28	1323.4	55.895	-430.44	985.54	39.532	-374.06	22.608	-133.7	-459.34	76.241	-12.112	-351.36	1559.4	27.344	-402.35	1141.7	-37.939	-436.47	981.55	-74.444	-301.19	1037.7	-288.04	-133.57	373.59	44.176	-218	808.62	-288.67	-168.73	287.76	110.37	-244.66	50.342	30.828	-176.85	102.91	12.081	-146.21	281.82	43.375	-20.481	55.882	105.57	-50.486	61.22	68.306	-157.7	190.98	42.186	-310.66	798.98	185.89	-336.41	1019.5	-228.96	-345.29	1566.9	-100.14	-385.81	1029.7	126.62	-103.16	34.12	126.91	-209.53	85.575	85.866	-529.87	37.926	-38.625
334	1.67	-169.9	1578.6	6.8682	-233.11	1344.6	-48.33	-159.33	1121.4	-46.48	-221.6	936.92	-167.13	-208.71	955.04	100.83	-280.18	1357.4	127.12	-332.14	1151.4	188.54	-370.61	1049.8	210.45	-322.25	903.58	223.06	-360.61	797.4	236.85	-298.59	1363.6	-214.73	-295.67	1157.2	-270.14	-213.56	929.9	-277.99	-155.07	782.73	-266.66	-265.04	760.22	159.45	-167.85	706.93	118.75	-328.71	550.46	-147.53	-258.93	641.67	-144.26	-332.55	636.59	-166.46	-340.99	441.89	-131.91	-337.92	340.85	-49.657	-407.22	166.25	-46.818	-371.11	251.11	-51.835	-477.03	67.197	-93.093	-333.29	38.522	-55.91	-286.41	28.907	-85.693	-194.16	587.92	122.2	-332.76	732.23	-188.67	-170.6	1576.8	-66.169	-356.08	1425.7	-40.187	-317.5	753.32	236.06	-229.31	673.7	141.32	-175.28	824.33	-227.17	-169.59	493.32	110.17	-389.51	257.96	-121.65	-402.03	1322.6	56.312	-425	984.82	40.012	-374.09	22.644	-133.61	-458.96	76.415	-11.918	-346.18	1558.6	27.959	-397.13	1140.9	-37.545	-431.34	980.87	-73.924	-294.76	1037.3	-288.1	-125.93	373.16	44.612	-209.59	808.86	-288.62	-158.17	286.21	110.82	-226.51	46.519	31.184	-160.43	101.2	12.411	-135.56	281.02	43.825	-2.384	58.745	105.4	-32.632	63.165	68.265	-144.07	189.84	42.571	-306.61	798.11	186.36	-329.7	1018.8	-228.95	-340.24	1566.2	-99.532	-381.01	1029	126.99	-84.335	34.545	127.06	-192.36	82.75	86.221	-529.75	38.438	-38.356
335	1.675	-164.73	1577.8	7.3353	-227.95	1343.9	-48.026	-154.14	1120.5	-46.405	-216.83	936	-167.03	-203.31	953.79	101.07	-274.85	1356.5	127.49	-327.14	1150.6	188.92	-365.8	1049.1	210.86	-317.79	902.77	223.54	-356.47	796.69	237.38	-293.67	1363	-214.35	-290.17	1156.8	-270.03	-206.22	930.12	-278.24	-146.34	783.52	-266.91	-259.94	759.37	159.92	-163.22	705.52	118.84	-325.06	549.7	-147.33	-254.92	640.66	-144.1	-328.6	635.89	-166.3	-337.9	441.15	-131.68	-335.52	340.05	-49.454	-406.23	166.01	-46.62	-369.44	250.56	-51.636	-476.79	67.482	-92.923	-333.24	38.493	-55.895	-286.35	28.818	-85.874	-189.92	586.66	122.94	-328.5	731.49	-188.4	-165.51	1576	-65.702	-350.96	1424.9	-39.683	-313.52	752.44	236.55	-224.59	672.64	142.04	-166.67	825.05	-227.41	-165.13	491.72	110.98	-387.78	257.56	-121.44	-396.75	1321.7	56.758	-419.53	984.07	40.513	-374.14	22.681	-133.52	-458.56	76.608	-11.717	-341	1557.9	28.601	-391.88	1140.1	-37.122	-426.19	980.15	-73.379	-288.35	1036.9	-288.11	-118.41	372.75	45.065	-201.25	809.09	-288.55	-147.75	284.78	111.29	-208.54	43.037	31.579	-144.25	99.776	12.758	-125.07	280.33	44.292	15.386	61.883	105.11	-15.096	65.361	68.139	-130.64	188.9	42.975	-302.49	797.23	186.86	-323.01	1018	-228.87	-335.19	1565.6	-98.897	-376.19	1028.2	127.39	-65.751	35.249	127.14	-175.37	80.233	86.599	-529.62	38.977	-38.072
336	1.68	-159.55	1577	7.826	-222.77	1343.1	-47.693	-148.95	1119.6	-46.297	-212.03	935.11	-166.95	-197.87	952.52	101.33	-269.5	1355.6	127.9	-322.07	1149.8	189.34	-360.93	1048.4	211.3	-313.27	901.95	224.05	-352.25	795.96	237.94	-288.72	1362.4	-213.93	-284.68	1156.3	-269.88	-198.92	930.32	-278.45	-137.68	784.29	-267.17	-254.88	758.46	160.39	-158.68	703.97	118.96	-321.39	548.94	-147.15	-250.89	639.66	-143.94	-324.62	635.19	-166.14	-334.8	440.41	-131.46	-333.11	339.24	-49.259	-405.23	165.77	-46.421	-367.74	250.02	-51.445	-476.54	67.784	-92.743	-333.18	38.463	-55.88	-286.28	28.731	-86.052	-185.82	585.28	123.77	-324.23	730.75	-188.13	-160.42	1575.2	-65.212	-345.82	1424.1	-39.151	-309.46	751.54	237.04	-219.97	671.48	142.81	-158.11	825.75	-227.64	-160.71	490.08	111.83	-386.04	257.15	-121.22	-391.46	1320.9	57.235	-414.03	983.28	41.036	-374.18	22.719	-133.41	-458.15	76.821	-11.507	-335.82	1557	29.268	-386.61	1139.3	-36.668	-421.01	979.4	-72.809	-281.97	1036.4	-288.07	-111.01	372.35	45.527	-192.97	809.3	-288.46	-137.48	283.48	111.77	-190.81	39.894	32.014	-128.35	98.618	13.124	-114.75	279.74	44.771	32.771	65.265	104.73	2.0678	67.78	67.946	-117.43	188.14	43.396	-298.31	796.33	187.37	-316.32	1017.3	-228.74	-330.14	1564.9	-98.234	-371.34	1027.5	127.82	-47.481	36.215	127.16	-158.62	78.025	87.003	-529.47	39.548	-37.774
337	1.685	-154.38	1576.1	8.3405	-217.57	1342.4	-47.33	-143.74	1118.7	-46.157	-207.22	934.25	-166.9	-192.38	951.22	101.62	-264.12	1354.7	128.33	-316.95	1149	189.77	-356.02	1047.6	211.77	-308.67	901.1	224.57	-347.95	795.22	238.53	-283.75	1361.8	-213.49	-279.19	1155.8	-269.68	-191.66	930.49	-278.62	-129.09	785.04	-267.43	-249.85	757.49	160.85	-154.21	702.28	119.08	-317.7	548.18	-146.97	-246.84	638.64	-143.79	-320.61	634.5	-165.99	-331.68	439.66	-131.25	-330.68	338.43	-49.072	-404.21	165.54	-46.222	-366.03	249.49	-51.263	-476.28	68.105	-92.552	-333.12	38.431	-55.865	-286.21	28.648	-86.224	-181.86	583.78	124.7	-319.93	730.01	-187.86	-155.34	1574.5	-64.698	-340.67	1423.3	-38.59	-305.32	750.64	237.56	-215.43	670.24	143.62	-149.61	826.43	-227.86	-156.32	488.41	112.69	-384.3	256.75	-121.01	-386.14	1320	57.744	-408.51	982.45	41.584	-374.24	22.756	-133.29	-457.73	77.055	-11.291	-330.63	1556.2	29.96	-381.33	1138.5	-36.184	-415.81	978.63	-72.213	-275.61	1036	-287.99	-103.73	371.98	45.993	-184.74	809.5	-288.36	-127.37	282.31	112.26	-173.39	37.08	32.493	-112.79	97.713	13.509	-104.62	279.25	45.257	49.709	68.85	104.28	18.8	70.388	67.701	-104.48	187.57	43.833	-294.05	795.42	187.91	-309.65	1016.5	-228.55	-325.09	1564.1	-97.544	-366.46	1026.7	128.28	-29.594	37.418	127.14	-142.17	76.121	87.434	-529.32	40.15	-37.466
